<?xml version="1.0" encoding="UTF-8"?>
<svg width="179px" height="41px" viewBox="0 0 179 41" version="1.1" xmlns="http://www.w3.org/2000/svg" xmlns:xlink="http://www.w3.org/1999/xlink">
    <!-- Generator: Sketch 47.1 (45422) - http://www.bohemiancoding.com/sketch -->
    <title>Group</title>
    <desc>Created with Sketch.</desc>
    <defs>
        <linearGradient x1="97.4668063%" y1="0%" x2="0%" y2="100%" id="linearGradient-1">
            <stop stop-color="#000000" offset="0%"></stop>
            <stop stop-color="#000000" stop-opacity="0.221835371" offset="100%"></stop>
        </linearGradient>
    </defs>
    <g id="Page-1" stroke="none" stroke-width="1" fill="none" fill-rule="evenodd">
        <g id="Verify-email-address" transform="translate(-351.000000, -48.000000)">
            <g id="Group-Copy-4" transform="translate(350.000000, -2.000000)">
                <g id="Group" transform="translate(0.000000, 50.000000)">
                    <g id="Group-Copy">
                        <path d="M17.9314271,0.0042916486 L41.0336455,0.0042916486 L41.0336455,23.3869648 L41.0336455,23.3869648 C41.0336455,23.8267217 40.6771521,24.1832151 40.2373952,24.1832151 C40.0244922,24.1832151 39.8204565,24.0979531 39.6708548,23.9464705 L17.3648867,1.36004767 L17.3648867,1.36004767 C17.0558803,1.04715606 17.0590298,0.54300806 17.3719214,0.234001607 C17.5209512,0.0868223112 17.7219716,0.0042916486 17.9314271,0.0042916486 Z" id="Rectangle-2-Copy" fill="#007CFF" transform="translate(29.084411, 12.093753) scale(-1, -1) translate(-29.084411, -12.093753) "></path>
                        <polygon id="Rectangle-2-Copy-2" fill="url(#linearGradient-1)" opacity="0.200000003" style="mix-blend-mode: multiply;" transform="translate(28.502304, 20.500000) scale(-1, -1) translate(-28.502304, -20.500000) " points="24.8648233 16.8167849 32.1397849 16.8167849 32.1397849 24.1832151"></polygon>
                        <path d="M1.7626049,16.8167849 L24.8648233,16.8167849 L24.8648233,40.199458 L24.8648233,40.199458 C24.8648233,40.6392149 24.5083299,40.9957084 24.068573,40.9957084 C23.85567,40.9957084 23.6516343,40.9104464 23.5020326,40.7589637 L1.19606451,18.1725409 L1.19606451,18.1725409 C0.887058059,17.8596493 0.890207605,17.3555013 1.20309922,17.0464948 C1.35212901,16.8993155 1.55314935,16.8167849 1.7626049,16.8167849 Z" id="Rectangle-2" fill="#5ECFFF"></path>
                    </g>
                    <path d="M56.8,29 L56.8,14.4 L61.36,14.4 C64.6,14.4 66.48,15.84 66.48,18.5 C66.48,19.72 65.94,20.7 64.9,21.32 C66.24,21.94 67,23.06 67,24.66 C67,27.56 64.98,29 61.74,29 L56.8,29 Z M61.6,22.8 L59.58,22.8 L59.58,26.44 L61.74,26.44 C63.36,26.44 64.2,25.78 64.2,24.6 C64.2,23.42 63.64,22.8 61.6,22.8 Z M61.38,16.96 L59.58,16.96 L59.58,20.2 L61.36,20.2 C63.08,20.2 63.68,19.52 63.68,18.5 C63.68,17.44 63.02,16.96 61.38,16.96 Z M76.26,29.2 C72.12,29.2 68.8,25.86 68.8,21.7 C68.8,17.56 72.12,14.2 76.26,14.2 C80.42,14.2 83.74,17.56 83.74,21.7 C83.74,25.86 80.42,29.2 76.26,29.2 Z M76.26,26.46 C78.88,26.46 80.98,24.32 80.98,21.7 C80.98,19.08 78.88,16.94 76.26,16.94 C73.64,16.94 71.56,19.08 71.56,21.7 C71.56,24.32 73.64,26.46 76.26,26.46 Z M90.8,29.2 C94.02,29.2 95.86,26.96 95.86,24.64 C95.86,21.84 93.62,20.96 91.64,20.32 C90.08,19.8 88.68,19.42 88.68,18.3 C88.68,17.38 89.38,16.68 90.68,16.68 C91.82,16.68 92.68,17.16 93.28,18.06 L95.58,16.32 C94.4,15.1 93.04,14.2 90.66,14.2 C87.84,14.2 85.8,16.06 85.8,18.4 C85.8,21.2 87.98,21.96 89.94,22.56 C91.5,23.04 92.96,23.42 92.96,24.62 C92.96,25.62 92.2,26.54 90.78,26.54 C89.48,26.54 88.34,25.82 87.62,24.58 L85.08,26.58 C86.4,28.08 88.16,29.2 90.8,29.2 Z M103.16,29.2 C106.38,29.2 108.22,26.96 108.22,24.64 C108.22,21.84 105.98,20.96 104,20.32 C102.44,19.8 101.04,19.42 101.04,18.3 C101.04,17.38 101.74,16.68 103.04,16.68 C104.18,16.68 105.04,17.16 105.64,18.06 L107.94,16.32 C106.76,15.1 105.4,14.2 103.02,14.2 C100.2,14.2 98.16,16.06 98.16,18.4 C98.16,21.2 100.34,21.96 102.3,22.56 C103.86,23.04 105.32,23.42 105.32,24.62 C105.32,25.62 104.56,26.54 103.14,26.54 C101.84,26.54 100.7,25.82 99.98,24.58 L97.44,26.58 C98.76,28.08 100.52,29.2 103.16,29.2 Z M119.94,29 L122.72,29 L122.72,17.06 L126.6,17.06 L126.6,14.4 L116.06,14.4 L116.06,17.06 L119.94,17.06 L119.94,29 Z M137.18,29 L139.96,29 L139.96,14.4 L137.18,14.4 L137.18,20.36 L131.68,20.36 L131.68,14.4 L128.9,14.4 L128.9,29 L131.68,29 L131.68,23.02 L137.18,23.02 L137.18,29 Z M142.56,29 L151.22,29 L151.22,26.34 L145.34,26.34 L145.34,23 L151.22,23 L151.22,20.34 L145.34,20.34 L145.34,17.06 L151.22,17.06 L151.22,14.4 L142.56,14.4 L142.56,29 Z M153.66,29 L156.44,29 L156.44,18.94 L160.78,24.82 L165.18,18.88 L165.18,29 L167.96,29 L167.96,14.4 L165.34,14.4 L160.8,20.48 L156.42,14.4 L153.66,14.4 L153.66,29 Z M170.56,29 L179.22,29 L179.22,26.34 L173.34,26.34 L173.34,23 L179.22,23 L179.22,20.34 L173.34,20.34 L173.34,17.06 L179.22,17.06 L179.22,14.4 L170.56,14.4 L170.56,29 Z" id="Boss-Theme" fill="#122B46"></path>
                </g>
            </g>
        </g>
    </g>
</svg>