<svg width="60" height="60" viewBox="0 0 60 60" version="1.1" xmlns="http://www.w3.org/2000/svg" xmlns:xlink="http://www.w3.org/1999/xlink">
<title>Group 9</title>
<desc>Created using Figma</desc>
<g id="Canvas" transform="translate(-19246 -116)">
<g id="Group 9" opacity="0.5">
<g id="Combined Shape">
<use xlink:href="#path0_fill" transform="translate(19261 134)" fill="#9CA8B4"/>
</g>
<g id="Oval 8 Copy">
<use xlink:href="#path1_stroke" transform="translate(19247 117)" fill="#9CA8B4"/>
</g>
</g>
</g>
<defs>
<path id="path0_fill" fill-rule="evenodd" d="M 17.043 3.54546L 26.7832 3.54546C 27.1484 3.54546 27.5137 3.66364 27.7559 4.01819C 28 4.25455 28 4.60909 28 4.96364L 24.3477 17.9636C 24.2266 18.5546 23.7383 18.9091 23.1309 18.9091L 7.91211 18.9091C 7.30469 18.9091 6.81836 18.5546 6.69531 17.9636L 3.65234 4.96364L 3.16602 2.36363L 1.2168 2.36363C 0.486328 2.36363 0 1.89091 0 1.18182C 0 0.472733 0.486328 0 1.2168 0L 4.26172 0C 4.74805 0 5.35742 0.354538 5.35742 0.94545L 5.84375 3.54546L 14.6094 3.54546L 14.6094 10.1636L 13.0254 8.62727C 12.5391 8.15454 11.8086 8.15454 11.3223 8.62727C 10.834 9.10001 10.834 9.8091 11.3223 10.2818L 14.9746 13.8273C 15.0352 13.8866 15.0957 13.9161 15.1582 13.9458C 15.2188 13.9752 15.2793 14.0048 15.3398 14.0636C 15.4609 14.1818 15.7051 14.1818 15.8262 14.1818C 15.8789 14.1818 15.9551 14.1818 16.0332 14.1721C 16.1367 14.1595 16.2441 14.1304 16.3125 14.0636C 16.4355 14.0636 16.5566 13.9454 16.6777 13.8273L 20.3301 10.2818C 20.8184 9.8091 20.8184 9.10001 20.3301 8.62727C 19.8438 8.15454 19.1133 8.15454 18.627 8.62727L 17.043 10.1636L 17.043 3.54546ZM 10.3477 21.2727C 11.6914 21.2727 12.7812 22.3305 12.7812 23.6364C 12.7812 24.9423 11.6914 26 10.3477 26C 9.00195 26 7.91211 24.9423 7.91211 23.6364C 7.91211 22.3305 9.00195 21.2727 10.3477 21.2727ZM 20.0879 21.2727C 21.4316 21.2727 22.5215 22.3305 22.5215 23.6364C 22.5215 24.9423 21.4316 26 20.0879 26C 18.7422 26 17.6523 24.9423 17.6523 23.6364C 17.6523 22.3305 18.7422 21.2727 20.0879 21.2727Z"/>
<path id="path1_stroke" d="M 29 58.75C 45.4305 58.75 58.75 45.4305 58.75 29L 57.25 29C 57.25 44.602 44.602 57.25 29 57.25L 29 58.75ZM 58.75 29C 58.75 12.5695 45.4305 -0.75 29 -0.75L 29 0.75C 44.602 0.75 57.25 13.398 57.25 29L 58.75 29ZM 29 -0.75C 12.5695 -0.75 -0.75 12.5695 -0.75 29L 0.75 29C 0.75 13.398 13.398 0.75 29 0.75L 29 -0.75ZM -0.75 29C -0.75 45.4305 12.5695 58.75 29 58.75L 29 57.25C 13.398 57.25 0.75 44.602 0.75 29L -0.75 29Z"/>
</defs>
</svg>
